<svg xmlns="http://www.w3.org/2000/svg" xmlns:xlink="http://www.w3.org/1999/xlink" viewBox="0 0 33.867 33.867" height="128" width="128"><defs><linearGradient id="c"><stop offset="0" stop-color="#380a95"/><stop offset="1" stop-color="#832ab0"/></linearGradient><linearGradient id="b"><stop offset="0" stop-color="#231147"/><stop offset="1" stop-color="#4b2498"/></linearGradient><linearGradient id="a"><stop offset="0" stop-color="#f8ca00"/><stop offset="1" stop-color="#fff7b2"/></linearGradient><linearGradient spreadMethod="pad" gradientUnits="userSpaceOnUse" y2="8.386" x2="10.109" y1="14.515" x1="4.899" id="h" xlink:href="#a"/><linearGradient gradientTransform="matrix(-1 0 0 1 33.874 0)" spreadMethod="pad" y2="8.386" x2="10.109" y1="14.515" x1="4.899" gradientUnits="userSpaceOnUse" id="i" xlink:href="#a"/><linearGradient gradientTransform="translate(0 -263.133)" gradientUnits="userSpaceOnUse" y2="278.414" x2="16.932" y1="287.838" x1="16.932" id="g" xlink:href="#a"/><linearGradient gradientUnits="userSpaceOnUse" y2="27.474" x2="16.932" y1="1.173" x1="16.932" id="d" xlink:href="#b"/><linearGradient gradientUnits="userSpaceOnUse" y2="36.313" x2="16.932" y1="24.218" x1="16.932" id="f" xlink:href="#a"/><linearGradient y2="31.32" x2="16.934" y1="24.705" x1="16.932" gradientUnits="userSpaceOnUse" id="e" xlink:href="#c"/></defs><path d="m 4.398698,14.84974 v 0.611849 L 2.2320083,16.09773 1.4881374,16.8416 v 6.99516 l 0.7686197,0.76862 H 15.835526 l 1.096774,-0.38767 1.074985,0.37509 h 13.773122 l 0.700299,-0.7003 v -7.10283 l -0.747242,-0.74724 h -2.1146 L 29.517579,15.494662 29.474917,14.849739 26.695215,9.1592693 23.011907,6.1073854 20.991714,4.878254 19.831347,4.3945639 13.897181,4.4352806 12.881901,4.8782553 10.208026,6.4932559 6.2090053,10.492276 Z" fill="url(#d)" transform="translate(0 .352)"/><path d="m 4.0691783,25.57883 1.418635,4.723929 1.7620062,1.017294 H 26.786182 l 1.762006,-1.017294 1.348827,-4.711689 -0.511728,-0.511719 H 18.006642 L 16.9323,24.70462 15.855765,25.08061 4.506185,25.10234 Z" fill="url(#e)" transform="translate(0 .352)"/><path d="m 23.660435,27.830838 h 1.078037 l -0.02044,1.023668 1.289788,0.74792 1.292608,-0.743031 V 27.84484 h 1.078159 l -0.01185,1.632871 -2.361232,1.357307 -2.356077,-1.366235 z" fill="#fec15a" transform="translate(0 .352)"/><path d="m 23.645537,28.616662 2.352593,1.358269 2.38384,-1.376308 -0.01573,0.870164 -2.356076,1.366233 -2.361235,-1.357306 z" fill="#f29046" transform="translate(0 .352)"/><path d="m 23.645537,28.998805 2.328609,1.260043 2.408081,-1.344044 -0.016,0.553983 -2.356076,1.366233 -2.36123,-1.357306 z" fill="#bd425c" transform="translate(0 .352)"/><path d="m 23.654736,27.972107 h 1.078037 l -0.02044,-0.603654 1.289788,-0.747921 1.292609,0.743032 v 0.59454 h 1.078159 l -0.01185,-1.212856 -2.361231,-1.357307 -2.356077,1.366234 z" fill="#fec15a" transform="translate(0 .352)"/><path d="m 23.645537,27.147482 2.328609,-1.260043 2.408081,1.344044 -0.016,-0.553982 -2.356076,-1.366233 -2.36123,1.357306 z" fill="#fcf7df" transform="translate(0 .352)"/><path d="m 28.366227,29.468786 -2.356076,1.366233 -2.361231,-1.357306 -0.0052,-2.723538 2.356077,-1.366234 2.361231,1.357306 z" fill="none" stroke="#000" stroke-width=".211" stroke-linejoin="round" paint-order="fill markers stroke" transform="translate(0 .352)"/><path d="m 27.297605,28.85451 -1.289787,0.747916 -1.292609,-0.743029 -0.0029,-1.490946 1.289788,-0.747918 1.292608,0.74303 z" fill="none" stroke="#000" stroke-width=".211" stroke-linejoin="round" paint-order="fill markers stroke" transform="translate(0 .352)"/><path d="m 22.477358,26.754175 v 2.743241 h 1.168179 l -0.0018,-2.743241 z" fill="#fec15a" transform="translate(0 .352)"/><path d="m 22.477358,26.754175 v 0.327684 h 1.168179 l -0.0018,-0.327684 z" fill="#fcf7df" transform="translate(0 .352)"/><path d="m 22.477358,29.27962 h 1.168179 v 0.514791 h -1.168179 z" fill="#f29046" transform="translate(0 .352)"/><path d="M22.477 29.636h1.168v.419h-1.168zM7.269 30.236v.549h1.148v-.713h.792v.598H10.359V30.236H9.211V30.068H8.413v.168z" fill="#bd425c" transform="translate(0 .352)"/><path d="m 7.2647722,30.053509 v 0.378012 h 1.1760392 v -0.350012 h 0.7840257 v 0.350012 h 1.1340379 v -0.364012 z" fill="#f29046" transform="translate(0 .352)"/><path d="m 7.2694544,28.626232 v 1.609281 h 1.1480228 l 3.569e-4,-0.163907 h 0.791989 v 0.163907 h 1.1397189 l 0.0087,-1.609281 z" fill="#fec15a" transform="translate(0 .352)"/><path d="m 5.5666845,27.755047 v 0.871185 H 22.477358 v -0.871185 z" fill="#bd425c" transform="translate(0 .352)"/><path d="m 7.2694544,28.626232 v 0.376193 H 10.345 l 0.0132,-0.376193 z" fill="#d96047" transform="translate(0 .352)"/><path d="m 5.5666845,27.200657 v 1.009782 H 22.477358 v -1.009782 z" fill="#f29046" transform="translate(0 .352)"/><path d="m 15.319791,28.074775 v 0.770026 h 3.416114 v -0.770026 z" fill="#f29046" transform="translate(0 .352)"/><path d="m 23.643731,26.754175 h -1.166373 v 3.30093 h 1.168179 z" fill="none" stroke="#000" stroke-width=".211" transform="translate(0 .352)"/><path d="m 5.5666845,26.883862 v 0.871185 H 22.477358 v -0.879645 z" fill="#fec15a" transform="translate(0 .352)"/><path d="m 19.553609,26.639728 h 0.54449 v 0.338987 h -0.541486 z" fill="#fcf7df" transform="translate(0 .352)"/><path d="m 5.5666845,26.883862 v 0.316795 H 22.477358 v -0.325255 z" fill="#fcf7df" transform="translate(0 .352)"/><path d="M22.477 26.875h-2.379v1.759h2.379zM19.554 26.881h-.841v1.752h.841z" fill="none" stroke="#000" stroke-width=".211" transform="translate(0 .352)"/><path d="m 15.319791,26.492723 h 1.246041 2.156072 v 0.896029 h -3.402113 z" fill="#fec15a" transform="translate(0 .352)"/><path d="m 17.27335,26.342672 v 0.280592 h 1.418975 l 0.0198,-0.280592 z" fill="#fcf7df" transform="translate(0 .352)"/><path d="m 15.319784,28.758229 h 3.40554 l -0.0132,0.316795 -3.385739,-0.0132 z" fill="#bd425c" transform="translate(0 .352)"/><path d="m 18.712124,26.880562 v -0.53789 H 17.27335 v 2.732352 h 1.438774 z" fill="none" stroke="#000" stroke-width=".211" transform="translate(0 .352)"/><path d="m 16.600161,25.461355 v 1.20404 h 0.670362 l 0.0028,-1.20404 z" fill="#fec15a" transform="translate(0 .352)"/><path d="m 16.600161,25.461355 h 0.673189 v 0.210006 H 16.5985 Z" fill="#fcf7df" transform="translate(0 .352)"/><path d="m 16.593833,28.625461 0.0063,1.400046 h 0.673179 v -1.400046 z" fill="#f29046" transform="translate(0 .352)"/><path d="m 16.579833,29.773498 h 0.686023 l 0.0075,0.252009 h -0.673188 z" fill="#bd425c" transform="translate(0 .352)"/><path d="m 17.27335,26.342672 v -0.881317 c 0,0 -0.310811,-0.209219 -0.673189,0 v 4.564152 c 0,0 0.303678,0.213337 0.673189,0 z" fill="none" stroke="#000" stroke-width=".211" transform="translate(0 .352)"/><path d="m 15.326384,26.309673 v 0.290394 h 1.267178 l 0.0066,-0.290394 z" fill="#fcf7df" transform="translate(0 .352)"/><path d="m 16.600161,26.309673 h -1.273777 v 2.752151 h 1.273777 z" fill="none" stroke="#000" stroke-width=".211" transform="translate(0 .352)"/><path d="m 8.4178341,30.071606 v -0.415792 h 0.792787 l -7.98e-4,0.415792 z" fill="#bd425c" transform="translate(0 .352)"/><path d="M 15.326384,26.883862 H 5.5666845 v 1.74237 h 1.7027699 v 2.158162 h 1.1483797 v -0.712788 h 0.791986 v 0.59399 h 1.1483789 v -2.039364 h 4.968185 z" fill="none" stroke="#000" stroke-width=".211" transform="translate(0 .352)"/><path d="m 19.552296,26.916187 h 0.558105 v 0.331762 h -0.558105 z" fill="#fec15a" transform="translate(0 .352)"/><path d="m 19.562631,28.550196 h 0.558105 v 0.347266 H 19.55643 Z" fill="#bd425c" transform="translate(0 .352)"/><path d="m 20.098099,26.875402 v -0.235674 h -0.54449 v 0.252008 1.98859 h 0.54449 z" fill="none" stroke="#000" stroke-width=".211" transform="translate(0 .352)"/><path d="m 27.136328,31.98783 1.973398,-1.122512 1.532332,-5.286488 -0.745043,0.01224 -1.348827,4.711688 -1.762006,1.017294 -9.009489,1e-6 -0.842326,-0.701583 -0.894002,0.701583 -8.7905457,-1e-6 -1.762006,-1.017294 -1.418635,-4.723928 H 3.3569009 l 1.5693724,5.286488 1.9694295,1.122512 h 9.1446622 l 0.894002,-0.667777 0.842326,0.667777 z" fill="url(#f)" stroke="#000" stroke-width=".265" transform="translate(0 .352)"/><path d="m 5.1014975,16.71836 h 0.574642 V 15.73031 L 5.4342936,15.48846 H 1.8562175 L 0.84852703,16.49615 V 24.407 L 2.0203638,25.57883 H 4.0691785 L 4.5673993,25.08061 H 15.855765 l 1.076535,-0.37599 1.074342,0.37473 h 11.378645 l 0.511728,0.51172 h 2.134106 l 1.192292,-1.19229 v -7.8612 l -1.049394,-1.04939 h -3.76025 l -0.29469,0.29469 v 0.93548 h 0.414581 l 0.706932,0.70693 V 16.4207 l 0.378272,-0.37827 h 2.1146 l 0.747242,0.74724 v 7.10283 l -0.700299,0.7003 H 18.007285 L 16.9323,24.21771 15.835526,24.60538 H 2.2567571 L 1.4881374,23.83676 V 16.8416 l 0.7438709,-0.74387 h 1.8488635 l 0.3631655,0.36316 v 0.94197 c 0.2472001,-0.2472 0.529351,-0.55639 0.6574602,-0.6845 z" fill="url(#g)" stroke="#000" stroke-width=".265" stroke-linecap="round" stroke-linejoin="round" transform="translate(0 .352)"/><path d="M18.776 17.23h.526l-.123-.246.123-.237.219-.07.254.097.083.219-.007.251h.412l.053-.368-.228-.412-.552-.172-.544.172-.246.298zM21.092 16.292v.902h1.224l-.042-.051.269-.249-.009-.26-.239-.341zM23.325 16.292v.956h1.517l.035-.421-.447-.535z" fill="#faea9d" transform="translate(0 .352)"/><path d="m 2.2200196,23.1221 0.00166,0.73532 h 1.3680859 v -0.71051 z" fill="#ae59c4" transform="translate(0 .352)"/><path d="m 2.2275245,22.91613 v 0.31759 h 1.3680861 v -0.33513 z" fill="#f1fef8" transform="translate(0 .352)"/><path d="m 2.2530925,21.97695 v 1.05834 h 1.3642579 v -1.04593 z" fill="#9143b0" transform="translate(0 .352)"/><path d="m 4.9609376,23.14691 0.3477035,0.71051 H 6.8170437 L 6.4616213,23.14691 Z" fill="#ae59c4" transform="translate(0 .352)"/><path d="m 4.8321496,22.9249 0.1578562,0.30882 H 6.5247175 L 6.3580916,22.9249 Z" fill="#f1fef8" transform="translate(0 .352)"/><path d="m 4.3848907,21.99531 0.526187,1.03998 H 6.4019405 L 5.8757536,21.96023 Z" fill="#9143b0" transform="translate(0 .352)"/><path d="m 2.2406902,21.30309 v 0.78962 H 3.5801433 L 4.15103,21.47204 4.4607097,22.09271 H 5.948991 L 5.552116,21.26589 Z" fill="#bb82d4" transform="translate(0 .352)"/><path d="m 4.5310537,18.74172 -0.9412899,1.257 V 17.35609 H 2.233371 V 21.4974 H 5.6360464 L 4.9578499,20.10396 5.9605282,18.76803 Z" fill="#f1fef8" transform="translate(0 .352)"/><path d="m 26.991636,23.14277 -0.0041,0.71934 h 1.368086 v -0.6975 z" fill="#b262c9" transform="translate(0 .352)"/><path d="m 27.004037,22.9278 v 0.30592 h 1.376662 V 22.9154 Z" fill="#f1fef8" transform="translate(0 .352)"/><path d="m 27.00508,21.85207 v 1.18322 h 1.350547 v -1.16568 z" fill="#9143b0" transform="translate(0 .352)"/><path d="m 26.996311,21.36973 v 0.72298 h 1.385626 v -0.74052 z" fill="#bb82d4" transform="translate(0 .352)"/><path d="m 30.320057,23.15876 v 0.70335 h 1.403165 v -0.70335 z" fill="#b262c9" transform="translate(0 .352)"/><path d="m 30.315464,22.9278 v 0.30592 h 1.426269 V 22.9526 Z" fill="#f1fef8" transform="translate(0 .352)"/><path d="m 30.327865,21.94801 v 1.08728 h 1.401467 v -1.07487 z" fill="#9143b0" transform="translate(0 .352)"/><path d="m 30.337597,21.36096 v 0.73175 h 1.385625 v -0.74929 z" fill="#bb82d4" transform="translate(0 .352)"/><path d="m 26.98754,17.98752 v 3.50988 h 1.368087 v -2.00148 l 0.947137,1.1693 1.017293,-1.26285 v 2.09503 h 1.420707 v -4.14131 h -1.824117 l -1.034833,1.3447 -0.912058,-1.26285 H 26.98754 Z" fill="#f1fef8" transform="translate(0 .352)"/><path d="m 30.355139,16.80652 h 1.368083 v 0.67252 h -1.900118 z" fill="#69fdf9" transform="translate(0 .352)"/><path d="m 7.3023049,22.8869 -0.00265,0.97521 h 1.2402344 l 0.00771,-0.95767 z" fill="#ae59c4" transform="translate(0 .352)"/><path d="m 7.3023049,22.8869 v 0.35079 h 1.2453089 v -0.33325 z" fill="#f1fef8" transform="translate(0 .352)"/><path d="m 7.3023049,21.93976 v 1.08746 h 1.2277694 v -1.105 z" fill="#9143b0" transform="translate(0 .352)"/><path d="m 7.3023049,21.30834 v 0.7761 h 1.2453089 v -0.7761 z" fill="#bb82d4" transform="translate(0 .352)"/><path d="m 7.3023049,18.67741 v 2.81172 h 1.2453089 v -2.82926 z" fill="#f1fef8" transform="translate(0 .352)"/><path d="m 7.2996715,18.18184 0.00265,0.6885 h 1.2453088 l -0.00771,-0.6885 z" fill="#69fdf9" transform="translate(0 .352)"/><path d="m 9.1381125,23.17046 -0.00423,0.69165 h 1.2898445 v -0.69165 z" fill="#ae59c4" transform="translate(0 .352)"/><path d="m 9.1381125,22.89859 v 0.3391 H 10.42727 v -0.34787 z" fill="#f1fef8" transform="translate(0 .352)"/><path d="m 9.1239911,21.96042 v 1.0668 H 10.43864 v -1.0544 z" fill="#9143b0" transform="translate(0 .352)"/><path d="m 9.132266,21.31419 v 0.77025 h 1.297928 v -0.78779 z" fill="#bb82d4" transform="translate(0 .352)"/><path d="m 11.760277,23.16169 0.410611,0.70042 h 0.857332 v -0.70042 z" fill="#ae59c4" transform="translate(0 .352)"/><path d="m 11.645801,22.9402 0.171756,0.29749 h 1.204904 V 22.9278 Z" fill="#f1fef8" transform="translate(0 .352)"/><path d="m 11.095964,21.98522 0.601596,1.042 h 1.320767 v -1.07921 z" fill="#9143b0" transform="translate(0 .352)"/><path d="m 10.723893,21.3651 0.415309,0.71934 h 1.90393 V 21.3527 Z" fill="#bb82d4" transform="translate(0 .352)"/><path d="m 9.1264195,18.74756 v 2.74157 h 1.2803885 l 0.01692,-0.65319 0.377118,0.65319 h 2.236895 v -2.75911 h -1.333006 l -0.01597,1.51061 -0.896089,-1.51061 z" fill="#f1fef8" transform="translate(0 .352)"/><path d="M11.689 18.182v.689h1.337l.002-.688zM9.134 18.182v.689h1.752l-.386-.688z" fill="#69fdf9" transform="translate(0 .352)"/><path d="M.835 23.837 2.1 25.102H4.506L4.069 25.579H2.02L.849 24.407ZM33.201 23.837l-1.265 1.265h-2.406l.437.476h2.049L33.187 24.407Z" fill="#cd3d5f" transform="translate(0 .352)"/><path d="m 5.1014975,16.71836 h 0.574642 V 15.73031 L 5.4342936,15.48846 H 1.8562175 L 0.84852703,16.49615 V 24.407 L 2.0203638,25.57883 H 4.0691785 L 4.5673993,25.08061 H 15.855765 l 1.076535,-0.37599 1.074342,0.37473 h 11.378645 l 0.511728,0.51172 h 2.134106 l 1.192292,-1.19229 v -7.8612 l -1.049394,-1.04939 h -3.76025 l -0.29469,0.29469 v 0.93548 h 0.414581 l 0.706932,0.70693 V 16.4207 l 0.378272,-0.37827 h 2.1146 l 0.747242,0.74724 v 7.10283 l -0.700299,0.7003 H 18.007285 L 16.9323,24.21771 15.835526,24.60538 H 2.2567571 L 1.4881374,23.83676 V 16.8416 l 0.7438709,-0.74387 h 1.8488635 l 0.3631655,0.36316 v 0.94197 c 0.2472001,-0.2472 0.529351,-0.55639 0.6574602,-0.6845 z" fill="none" stroke="#000" stroke-width=".265" stroke-linecap="round" stroke-linejoin="round" transform="translate(0 .352)"/><path d="M2.222 16.807v.673h1.371v-.657zM4.845 18.347 4.448 18.868H5.887L6.271 18.36Z" fill="#69fdf9" transform="translate(0 .352)"/><path d="M 5.0684246,18.02474 4.7335613,18.47122 H 6.1846356 L 6.5194989,18.01234 Z" fill="#f1fef8" transform="translate(0 .352)"/><path d="M 5.5541951,17.43794 4.9870824,18.12396 H 6.4428663 L 6.9573599,17.43794 Z" fill="#69fdf9" transform="translate(0 .352)"/><path d="M3.59 16.807H2.222v7.051H3.59V22.033L4.151 21.472 5.309 23.857h1.508l-1.859-3.753 2-2.666H5.554l-1.964 2.561zM7.3 18.182h1.24v5.68H7.3ZM9.134 18.182v5.68h1.29v-3.026l1.747 3.026h.857v-5.68h-1.339v2.059l-1.189-2.059z" fill="none" stroke="#000" stroke-width=".265" transform="translate(0 .352)"/><path d="m 13.61364,23.14691 0.0037,0.3948 0.320398,0.3204 h 3.254058 l -0.0062,-0.7152 z" fill="#ae59c4" transform="translate(0 .352)"/><path d="m 13.616548,22.92783 v 0.30986 h 3.569301 V 22.9366 Z" fill="#f1fef8" transform="translate(0 .352)"/><path d="m 13.616548,21.95146 v 1.07576 h 3.560531 v -1.03786 h -1.186323 l 0.01682,0.52405 h -0.897528 v -0.53646 z" fill="#9143b0" transform="translate(0 .352)"/><path d="m 13.634087,21.26741 v 0.81703 h 1.473324 v -0.81703 z" fill="#bb82d4" transform="translate(0 .352)"/><path d="m 13.617297,18.63425 v 2.85488 h 1.490114 l 0.0026,-1.8412 h 2.081696 v -1.03484 z" fill="#f1fef8" transform="translate(0 .352)"/><path d="m 13.617774,18.87034 -4.76e-4,-0.23609 0.452412,-0.45241 h 3.122042 v 0.6885 z" fill="#69fdf9" transform="translate(0 .352)"/><path d="m 16.037007,21.35511 v 0.72933 h 1.140072 v -0.72933 z" fill="#bb82d4" transform="translate(0 .352)"/><path d="m 15.516466,20.42922 v 1.05991 h 1.941246 l 0.0038,-1.05991 z" fill="#f1fef8" transform="translate(0 .352)"/><path d="M 17.191752,18.18184 H 14.06971 l -0.452413,0.45241 v 4.90746 l 0.320398,0.3204 h 3.254057 l -0.02794,-2.29857 0.297656,6.1e-4 v -1.13493 h -1.945002 v 1.19269 h 0.491108 v 0.8915 h -0.897527 v -2.86548 h 2.081705 z" fill="none" stroke="#000" stroke-width=".265" transform="translate(0 .352)"/><path d="m 18.004069,23.14277 0.0032,0.71934 h 2.736172 L 21.4271,23.14277 Z" fill="#ae59c4" transform="translate(0 .352)"/><path d="m 18.004069,22.91953 v 0.31816 H 21.3403 l 0.345116,-0.34511 z" fill="#f1fef8" transform="translate(0 .352)"/><path d="m 18.001438,21.9573 v 1.06992 h 3.560532 l 0.119273,-0.1029 -0.01404,-0.96702 h -1.245309 l 0.0109,0.24478 -0.58698,0.58699 H 19.325876 V 21.9573 Z" fill="#9143b0" transform="translate(0 .352)"/><path d="M18.007 21.349v.735h1.315v-.718zM20.428 21.367v.718h1.263v-.718z" fill="#bb82d4" transform="translate(0 .352)"/><path d="m 18.007285,18.73587 v 2.75326 h 1.315467 l 0.0031,-2.25547 h 0.482017 l 0.624901,0.62491 v 1.63056 h 1.240251 l 0.0082,-2.30892 -0.446679,-0.44434 z" fill="#f1fef8" transform="translate(0 .352)"/><path d="m 18.007285,18.18184 v 0.6885 h 3.385136 l -0.709548,-0.6885 z" fill="#69fdf9" transform="translate(0 .352)"/><path d="m 18.007285,18.18184 v 5.68027 h 2.736172 l 0.937786,-0.93779 v -3.74411 l -0.99837,-0.99837 z" fill="none" stroke="#000" stroke-width=".265" transform="translate(0 .352)"/><path d="m 19.325884,19.23366 v 3.55541 h 0.519938 l 0.58698,-0.58699 v -2.34351 l -0.624901,-0.62491 z" fill="none" stroke="#000" stroke-width=".265" transform="translate(0 .352)"/><path d="m 22.495217,23.02722 0.773935,0.83489 h 2.139826 l 0.713309,-0.83489 z" fill="#ae59c4" transform="translate(0 .352)"/><path d="m 22.33151,22.86351 0.335452,0.37418 H 25.9644 l 0.326737,-0.37418 z" fill="#f1fef8" transform="translate(0 .352)"/><path d="m 22.33371,21.94561 -0.0022,0.9179 0.163707,0.16371 h 3.62707 l 0.168881,-0.16371 v -0.90036 l -1.017518,0.0171 -0.433241,0.51965 h -1.008281 l -0.487944,-0.51965 z" fill="#9143b0" transform="translate(0 .352)"/><path d="M25.134 21.332v.753h1.164v-.77zM22.316 21.332v.753h1.247l-.087-.104v-.649z" fill="#bb82d4" transform="translate(0 .352)"/><path d="m 22.684502,18.75341 -0.353023,0.35664 v 2.37908 h 1.142304 l 0.01069,-1.46208 0.347627,-0.48302 h 1.013265 l 0.29671,0.48302 v 1.46208 h 1.155579 l -0.0065,-2.37908 -0.344277,-0.37418 z" fill="#f1fef8" transform="translate(0 .352)"/><path d="m 23.269152,18.18184 -0.72169,0.6885 h 3.497461 l -0.626369,-0.6885 z" fill="#69fdf9" transform="translate(0 .352)"/><path d="m 23.269152,18.18184 -0.937673,0.92821 v 3.75346 l 0.937673,0.9986 h 2.139826 l 0.882159,-0.9986 v -3.75346 l -0.872583,-0.92821 z" fill="none" stroke="#000" stroke-width=".265" transform="translate(0 .352)"/><path d="m 23.89744,19.54403 -0.421073,0.48302 v 1.95322 l 0.421073,0.51965 h 0.870098 l 0.373867,-0.51965 v -1.95322 l -0.369566,-0.48302 z" fill="none" stroke="#000" stroke-width=".246" transform="translate(0 .352)"/><path d="M 27.969756,17.43794 H 26.98754 v 0.68602 h 1.479974 z" fill="#69fdf9" transform="translate(0 .352)"/><path d="m 26.98754,17.43794 h 0.982216 l 0.912058,1.26285 1.473325,-1.89427 h 1.368083 v 7.05559 h -1.403165 v -4.45974 l -1.017293,1.26285 -0.947137,-1.15761 v 4.3545 H 26.98754 Z" fill="none" stroke="#000" stroke-width=".265" transform="translate(0 .352)"/><path d="m 9.1865267,16.29202 v 0.9245 h 1.2128383 l -0.270262,-0.30386 0.555516,-0.62064 h -0.605124 l -0.3968748,0.43461 v -0.43461 z" fill="#faea9d" transform="translate(0 .352)"/><path d="m 9.1673449,17.169 0.019182,0.52619 H 9.6702184 L 9.6707211,17.169 10.141499,17.69519 H 10.83602 L 10.359052,17.169 Z" fill="#e4636f" transform="translate(0 .352)"/><path d="m 9.1865265,16.29202 v 1.40317 H 9.670218 v -0.54688 l 0.471287,0.54688 h 0.694521 l -0.706923,-0.78253 0.607705,-0.62064 H 10.079495 L 9.68262,16.72663 v -0.43461 z" fill="none" stroke="#000" stroke-width=".132" stroke-linejoin="bevel" transform="translate(0 .352)"/><path d="m 11.509882,16.29202 v 0.93837 l 0.462332,-0.006 0.009,-0.13824 h 0.607715 v -0.21084 h -0.607716 v -0.23565 h 0.843359 v -0.34779 z" fill="#faea9d" transform="translate(0 .352)"/><path d="m 11.500107,17.169 0.0098,0.52619 h 1.351856 V 17.28473 H 11.981196 V 17.169 Z" fill="#e4636f" transform="translate(0 .352)"/><path d="m 12.82453,16.29202 h -1.314648 v 1.40317 h 1.351856 v -0.41046 h -0.880567 v -0.17504 h 0.607715 v -0.25762 h -0.607715 v -0.21226 h 0.843359 z" fill="none" stroke="#000" stroke-width=".132" stroke-linejoin="bevel" transform="translate(0 .352)"/><path d="m 13.382636,16.29202 h 0.629873 l 0.255572,0.44267 0.255571,-0.44267 h 0.620117 l -0.644922,0.80668 v 0.20477 H 14.025804 V 17.169 l 0.0017,-0.0703 z" fill="#faea9d" transform="translate(0 .352)"/><path d="m 14.025804,17.169 h 0.482338 l -0.0093,0.52619 h -0.471289 z" fill="#e4636f" transform="translate(0 .352)"/><path d="m 13.382636,16.29202 0.644922,0.80668 v 0.59649 h 0.471289 V 17.0987 l 0.644922,-0.80668 h -0.620117 l -0.255571,0.44267 -0.255572,-0.44267 z" fill="none" stroke="#000" stroke-width=".132" stroke-linejoin="bevel" transform="translate(0 .352)"/><path d="m 16.16852,16.29202 0.260204,0.96176 h 1.420705 l 0.257763,-0.96176 h -0.512403 l -0.165332,0.47817 -0.276071,-0.47817 -0.277843,0.48124 -0.09174,-0.48124 z" fill="#faea9d" transform="translate(0 .352)"/><path d="m 16.402415,17.169 0.142082,0.52619 h 0.442577 l 0.160772,-0.52619 0.176057,0.52619 h 0.407312 L 17.875738,17.169 Z" fill="#e4636f" transform="translate(0 .352)"/><path d="m 16.16852,16.29202 0.375977,1.40317 h 0.442577 l 0.168415,-0.62853 0.168414,0.62853 h 0.407312 l 0.375977,-1.40317 h -0.512403 l -0.165332,0.47817 -0.276071,-0.47817 -0.277843,0.48124 -0.09174,-0.48124 z" fill="none" stroke="#000" stroke-width=".132" stroke-linejoin="bevel" transform="translate(0 .352)"/><path d="m 18.749793,17.169 h 0.526187 l 0.219244,0.13155 0.306943,-0.13155 h 0.482338 l -0.298173,0.40341 -0.447259,0.12278 -0.508647,-0.13155 z" fill="#e4636f" transform="translate(0 .352)"/><path d="m 20.310063,16.9936 a 0.78561467,0.69791687 0 0 1 -0.785615,0.69792 0.78561467,0.69791687 0 0 1 -0.785614,-0.69792 0.78561467,0.69791687 0 0 1 0.785614,-0.69791 0.78561467,0.69791687 0 0 1 0.785615,0.69791 z" fill="none" stroke="#000" stroke-width=".14" stroke-linecap="round" stroke-linejoin="bevel" paint-order="fill markers stroke" transform="translate(0 .352)"/><path d="m 19.859035,16.9936 a 0.33458656,0.29723683 0 0 1 -0.334587,0.29724 0.33458656,0.29723683 0 0 1 -0.334586,-0.29724 0.33458656,0.29723683 0 0 1 0.334586,-0.29723 0.33458656,0.29723683 0 0 1 0.334587,0.29723 z" fill="#231147" stroke="#000" stroke-width=".132" stroke-linecap="round" stroke-linejoin="bevel" paint-order="fill markers stroke" transform="translate(0 .352)"/><path d="m21.097 17.169-.005.526h.508L21.588 17.169ZM21.746 17.169l.279.526h.568L22.316 17.169Z" fill="#e4636f" transform="translate(0 .352)"/><path d="m 21.09225,16.29202 v 1.40317 h 0.508496 v -0.56342 h 0.09922 l 0.32529,0.56342 h 0.567679 L 22.273722,17.1423 c 0,0 0.617347,-0.23293 0,-0.85028 z" fill="none" stroke="#000" stroke-width=".132" stroke-linejoin="bevel" transform="translate(0 .352)"/><path d="m 21.585412,16.67205 v 0.21047 h 0.350791 c 0,0 0.118392,-0.0877 -0.0044,-0.21047 z" fill="#231147" stroke="#000" stroke-width=".132" transform="translate(0 .352)"/><path d="m 23.318849,17.169 0.0058,0.52619 h 1.041797 l 0.338005,-0.26894 0.149086,-0.25725 h -0.543726 l -0.105915,0.0955 H 23.801629 V 17.169 Z" fill="#e4636f" transform="translate(0 .352)"/><path d="m 23.324672,16.29202 v 1.40317 h 1.041797 c 0,0 1.153417,-0.61821 0,-1.40317 z" fill="none" stroke="#000" stroke-width=".132" transform="translate(0 .352)"/><path d="m 23.801652,16.7227 v 0.54181 h 0.402267 c 0,0 0.445365,-0.23871 0,-0.54181 z" fill="#231147" stroke="#000" stroke-width=".132" transform="translate(0 .352)"/><path d="m 16.083779,11.933444 h 1.701338 l 0.140316,1.148841 -0.380289,0.36187 0.48845,1.83314 h -2.197436 l 0.489869,-1.828216 -0.365025,-0.358024 z" fill="#f8ba55" transform="translate(0 .352)"/><path d="m 15.920077,12.561945 c 0,0 0.929597,-1.385626 2.01705,0 -1.121141,-2.205112 -2.01705,0 -2.01705,0 z" fill="#fefde3" transform="translate(0 .352)"/><path d="m 15.990756,14.552084 c 1.860351,0 1.860351,0 1.860351,0 l 0.182487,0.725211 h -2.197436 z" fill="#ee9446" transform="translate(0 .352)"/><path d="m 16.326027,13.449079 c -0.249423,-0.185398 -0.411021,-0.482315 -0.411021,-0.816976 0,-0.561837 0.455458,-1.017295 1.017295,-1.017295 0.561836,0 1.017294,0.455459 1.017294,1.017295 0,0.331713 -0.158764,0.626344 -0.404451,0.812052 l 0.48845,1.83314 h -2.197436 z" fill="none" stroke="#000" stroke-width=".265" stroke-linecap="round" stroke-linejoin="bevel" paint-order="fill markers stroke" transform="translate(0 .352)"/><path d="m 15.668676,10.08302 h 2.543237 v 1.297928 L 16.9323,10.802142 15.668676,11.328329 Z" fill="#257dbb" transform="translate(0 .352)"/><path d="m 15.680369,7.5456298 v 2.6660132 h 2.543237 V 7.5807088 H 17.399247 L 16.940606,8.7617061 16.417031,7.5280903 Z" fill="#42e4f9" transform="translate(0 .352)"/><path d="M15.659 6.557v1.116h.844zM18.222 6.557V7.673H17.378Z" fill="#f1fef8" transform="translate(0 .352)"/><path d="M 15.659443,11.462799 V 6.5570522 c 0.775725,0.447865 1.281163,2.2046539 1.281163,2.2046539 0,0 0.505438,-1.7567889 1.281163,-2.2046539 v 4.9057468 c 0,0 -0.583026,-0.631425 -1.281163,-0.631425 -0.723493,0 -1.281163,0.631425 -1.281163,0.631425 z" fill="none" stroke="#000" stroke-width=".265" transform="translate(0 .352)"/><path d="m 16.9323,1.7404623 c 0,0 -0.412378,1.7363282 -2.706811,2.6789063 L 16.9323,5.7960287 19.831347,4.3945639 C 19.013613,4.1929477 17.490241,3.4112208 16.9323,1.7404623 Z" fill="#fbfae5" transform="translate(0 .352)"/><path d="m 13.891871,5.2277527 c 0,0 -2.663616,0.8080547 -3.655803,1.6018048 h 4.737695 V 5.8373699 Z" fill="#e94dd5" transform="translate(0 .352)"/><path d="M14.66 4.446c0 0 2.273-.544 2.273 1.449zM19.205 4.446c0 0-2.273-.544-2.273 1.449z" fill="#ffd36f" transform="translate(0 .352)"/><path d="M 16.9323,7.4871641 C 16.512126,4.7509925 13.897181,4.4352806 13.897181,4.4352806 c 0,0 2.752966,-0.2515565 3.035119,1.4599669 0.282153,-1.7115234 3.035119,-1.4599669 3.035119,-1.4599669 0,0 -2.614945,0.3157119 -3.035119,3.0518835 z" fill="#ee9446" transform="translate(0 .352)"/><path d="M 13.897181,4.4352806 C 16.94906,3.610921 16.9323,1.1729218 16.9323,1.1729218 c 0,0 -0.01676,2.4379992 3.035119,3.2623588 0,0 -2.614945,0.315712 -3.035119,3.0518838 C 16.512126,4.7509926 13.897181,4.4352806 13.897181,4.4352806 Z" fill="none" stroke="#000" stroke-width=".265" stroke-linejoin="round" transform="translate(0 .352)"/><path d="M 9.6407555,7.2016278 H 14.973763 V 9.01237 H 7.7059898 c 0,0 1.0914063,-1.2402344 1.9347657,-1.8107422 z" fill="#b843be" transform="translate(0 .352)"/><path d="M 7.3432304,9.3755908 H 14.973763 V 9.9193173 H 11.938595 V 10.445503 H 6.5890292 Z" fill="#a841b7" transform="translate(0 .352)"/><path d="m 6.372708,10.784602 h 5.577581 v 0.859439 H 5.9166793 Z" fill="#903bab" transform="translate(0 .352)"/><path d="M 5.7412836,12.047451 H 11.938595 V 12.4684 H 5.5834276 Z" fill="#76349e" transform="translate(0 .352)"/><path d="m 5.3904924,12.848424 h 4.1393368 v 0.543727 H 5.2150966 Z" fill="#663395" transform="translate(0 .352)"/><path d="m 5.0572407,13.8131 h 4.4725885 v 0.701583 H 4.8993847 Z" fill="#9131a9" transform="translate(0 .352)"/><path d="m 12.561507,14.922087 h 2.046387 v 0.960681 H 12.57002 Z" fill="#2f549b" transform="translate(0 .352)"/><path d="m 12.592513,14.051856 1.947168,-0.02481 v 1.008723 h -1.984375 z" fill="#2c6bb2" transform="translate(0 .352)"/><path d="m 14.429213,14.891081 v 0.991687 h 0.54455 v -0.991687 z" fill="#32448a" transform="translate(0 .352)"/><path d="m 14.429213,14.051856 v 0.983918 l 0.54455,0.145912 v -1.067818 z" fill="#2e4892" transform="translate(0 .352)"/><path d="m 12.56125,13.28399 2.008281,0.0088 v 0.876917 H 12.56125 Z" fill="#288dcb" transform="translate(0 .352)"/><path d="m 14.429213,13.231372 v 0.938366 l 0.54455,0.145912 v -1.005351 z" fill="#2d579f" transform="translate(0 .352)"/><path d="m 12.58756,11.649888 h 1.911812 v 1.718876 H 12.57002 Z" fill="#31b8e7" transform="translate(0 .352)"/><path d="m 12.590483,11.474492 h 1.903043 v 0.254242 h -1.88258 z" fill="#1c61a3" transform="translate(0 .352)"/><path d="m 14.472621,11.541727 h -1.884242 v -0.840571 h 1.884242 z" fill="#42e4f9" transform="translate(0 .352)"/><path d="m 10.236068,14.986166 h 1.829346 v 0.886767 h -1.841748 z" fill="#2a54a0" transform="translate(0 .352)"/><path d="m 10.236068,14.446664 h 1.835547 v 0.669726 h -1.841748 z" fill="#2c8dcc" transform="translate(0 .352)"/><path d="m 12.881901,4.8782553 c 0,0 -7.2925779,2.2489584 -8.483203,9.9714847 h 0.4588867 c 0,0 0.7667685,-6.9416261 8.6946513,-9.6427187 z" fill="url(#h)" stroke="#000" stroke-width=".265" transform="translate(0 .352)"/><path d="m 12.57002,10.445503 h 1.902601 v 0.298174 h -1.899678 z" fill="#f1fef8" transform="translate(0 .352)"/><path d="m 15.052312,11.736752 -0.623099,-0.111621 v 1.743633 l 0.54455,0.145913 z" fill="#2b71b6" transform="translate(0 .352)"/><path d="m 14.429213,11.480338 v 0.247111 l 0.54455,0.144355 v -0.303768 z" fill="#1c3f84" transform="translate(0 .352)"/><path d="m 14.973763,10.550741 h -0.54455 v 0.990986 l 0.54455,0.145912 z" fill="#2782c2" transform="translate(0 .352)"/><path d="m 12.57002,10.445503 h 2.455538 v 5.437265 H 12.57002 Z" fill="none" stroke="#000" stroke-width=".265" stroke-linejoin="round" paint-order="fill markers stroke" transform="translate(0 .352)"/><path d="m 10.236068,14.204818 h 1.860352 v 0.310059 h -1.860352 z" fill="#24509d" transform="translate(0 .352)"/><path d="m 10.219719,13.46231 h 1.859194 v 0.8748 H 10.24847 Z" fill="#60fafb" transform="translate(0 .352)"/><path d="m 10.219719,13.46231 h 1.859194 v 2.420459 h -1.859194 z" fill="none" stroke="#000" stroke-width=".265" stroke-linejoin="round" paint-order="fill markers stroke" transform="translate(0 .352)"/><path d="m 21.360006,14.922087 h -2.046387 v 0.960681 h 2.037874 z" fill="#2f549b" transform="translate(0 .352)"/><path d="m 21.329,14.051856 -1.947168,-0.02481 v 1.008723 h 1.984375 z" fill="#2c6bb2" transform="translate(0 .352)"/><path d="m 19.4923,14.891081 v 0.991687 h -0.54455 v -0.991687 z" fill="#32448a" transform="translate(0 .352)"/><path d="m 19.4923,14.051856 v 0.983918 l -0.54455,0.145912 v -1.067818 z" fill="#2e4892" transform="translate(0 .352)"/><path d="m 21.360263,13.28399 -2.008281,0.0088 v 0.876917 h 2.008281 z" fill="#288dcb" transform="translate(0 .352)"/><path d="m 19.4923,13.231372 v 0.938366 l -0.54455,0.145912 v -1.005351 z" fill="#2d579f" transform="translate(0 .352)"/><path d="m 21.333953,11.649888 h -1.911812 v 1.718876 h 1.929352 z" fill="#31b8e7" transform="translate(0 .352)"/><path d="m 21.33103,11.474492 h -1.903043 v 0.254242 h 1.88258 z" fill="#1c61a3" transform="translate(0 .352)"/><path d="m 19.448892,11.541727 h 1.884242 v -0.840571 h -1.884242 z" fill="#42e4f9" transform="translate(0 .352)"/><path d="m 21.351493,10.445503 h -1.902601 v 0.298174 h 1.899678 z" fill="#f1fef8" transform="translate(0 .352)"/><path d="M 18.869201,11.736752 19.4923,11.625131 v 1.743633 l -0.54455,0.145913 z" fill="#2b71b6" transform="translate(0 .352)"/><path d="m 19.4923,11.480338 v 0.247111 l -0.54455,0.144355 v -0.303768 z" fill="#1c3f84" transform="translate(0 .352)"/><path d="m 18.94775,10.550741 h 0.54455 v 0.990986 l -0.54455,0.145912 z" fill="#2782c2" transform="translate(0 .352)"/><path d="m 18.895954,10.445503 h 2.455539 v 5.437265 h -2.455539 z" fill="none" stroke="#000" stroke-width=".265" stroke-linejoin="round" paint-order="fill markers stroke" transform="translate(0 .352)"/><path d="m 23.708832,14.986166 h -1.829346 v 0.886767 h 1.841748 z" fill="#2a54a0" transform="translate(0 .352)"/><path d="m 23.708832,14.446664 h -1.835547 v 0.669726 h 1.841748 z" fill="#2c8dcc" transform="translate(0 .352)"/><path d="M 23.708832,14.204818 H 21.84848 v 0.310059 h 1.860352 z" fill="#24509d" transform="translate(0 .352)"/><path d="m 23.725181,13.46231 h -1.859194 v 0.8748 h 1.830443 z" fill="#60fafb" transform="translate(0 .352)"/><path d="m 21.865988,13.46231 h 1.859193 v 2.420459 h -1.859193 z" fill="none" stroke="#000" stroke-width=".265" stroke-linejoin="round" paint-order="fill markers stroke" transform="translate(0 .352)"/><path d="m 5.4694337,15.035775 0.5270995,0.5271 h 3.533296 v -0.527101 z" fill="#73339c" transform="translate(0 .352)"/><path d="M 5.9985303,15.940644 V 16.3499 h 2.600428 v -0.409256 z" fill="#6f2c94" transform="translate(0 .352)"/><path d="m 5.9985303,16.829981 h 2.600428 v 0.322461 h -2.600428 z" fill="#8b33a7" transform="translate(0 .352)"/><path d="m 19.966155,5.2277527 c 0,0 2.663616,0.8080547 3.655803,1.6018048 H 18.884263 V 5.8373699 Z" fill="#e94dd5" transform="translate(0 .352)"/><path d="M 24.217271,7.2016278 H 18.884263 V 9.01237 h 7.267773 c 0,0 -1.091406,-1.2402344 -1.934765,-1.8107422 z" fill="#b843be" transform="translate(0 .352)"/><path d="m 26.514796,9.3755908 h -7.630533 v 0.5437265 h 3.035168 v 0.5261857 h 5.349566 z" fill="#a841b7" transform="translate(0 .352)"/><path d="m 27.485318,10.784602 h -5.577581 v 0.859439 h 6.03361 z" fill="#903bab" transform="translate(0 .352)"/><path d="M 28.116743,12.047451 H 21.919431 V 12.4684 h 6.355168 z" fill="#76349e" transform="translate(0 .352)"/><path d="m 28.467534,12.848424 h -4.139337 v 0.543727 h 4.314733 z" fill="#663395" transform="translate(0 .352)"/><path d="m 28.800785,13.8131 h -4.472588 v 0.701583 h 4.630445 z" fill="#9131a9" transform="translate(0 .352)"/><path d="m 28.388593,15.035775 -0.5271,0.5271 h -3.533296 v -0.527101 z" fill="#73339c" transform="translate(0 .352)"/><path d="M 27.859496,15.940644 V 16.3499 h -2.600428 v -0.409256 z" fill="#6f2c94" transform="translate(0 .352)"/><path d="m 27.859496,16.829981 h -2.600428 v 0.322461 h 2.600428 z" fill="#8b33a7" transform="translate(0 .352)"/><path d="m 20.991714,4.878254 c 0,0 7.292578,2.2489584 8.483203,9.971485 H 29.01603 c 0,0 -0.766768,-6.9416264 -8.694651,-9.642719 z" fill="url(#i)" stroke="#000" stroke-width=".265" transform="translate(0 .352)"/></svg>